<svg id="visual" viewBox="0 0 1080 100" width="1080" height="100" xmlns="http://www.w3.org/2000/svg" xmlns:xlink="http://www.w3.org/1999/xlink" version="1.1"><rect x="0" y="0" width="1080" height="100" fill="#F6F5F4"></rect><path d="M0 67L7.8 64C15.7 61 31.3 55 47 51.7C62.7 48.3 78.3 47.7 94 50.7C109.7 53.7 125.3 60.3 141 61.7C156.7 63 172.3 59 188 59C203.7 59 219.3 63 235 60.5C250.7 58 266.3 49 282 45.3C297.7 41.7 313.3 43.3 329 42C344.7 40.7 360.3 36.3 376 38.2C391.7 40 407.3 48 423 50.5C438.7 53 454.3 50 470 50.8C485.7 51.7 501.3 56.3 516.8 52.5C532.3 48.7 547.7 36.3 563.2 37.5C578.7 38.7 594.3 53.3 610 60.8C625.7 68.3 641.3 68.7 657 64.2C672.7 59.7 688.3 50.3 704 44.2C719.7 38 735.3 35 751 36.5C766.7 38 782.3 44 798 41.8C813.7 39.7 829.3 29.3 845 29.5C860.7 29.7 876.3 40.3 892 42.8C907.7 45.3 923.3 39.7 939 34.3C954.7 29 970.3 24 986 25.5C1001.7 27 1017.3 35 1033 35.2C1048.7 35.3 1064.3 27.7 1072.2 23.8L1080 20L1080 101L1072.2 101C1064.3 101 1048.7 101 1033 101C1017.3 101 1001.7 101 986 101C970.3 101 954.7 101 939 101C923.3 101 907.7 101 892 101C876.3 101 860.7 101 845 101C829.3 101 813.7 101 798 101C782.3 101 766.7 101 751 101C735.3 101 719.7 101 704 101C688.3 101 672.7 101 657 101C641.3 101 625.7 101 610 101C594.3 101 578.7 101 563.2 101C547.7 101 532.3 101 516.8 101C501.3 101 485.7 101 470 101C454.3 101 438.7 101 423 101C407.3 101 391.7 101 376 101C360.3 101 344.7 101 329 101C313.3 101 297.7 101 282 101C266.3 101 250.7 101 235 101C219.3 101 203.7 101 188 101C172.3 101 156.7 101 141 101C125.3 101 109.7 101 94 101C78.3 101 62.7 101 47 101C31.3 101 15.7 101 7.8 101L0 101Z" fill="#ff9891"></path><path d="M0 73L7.8 65.2C15.7 57.3 31.3 41.7 47 35.2C62.7 28.7 78.3 31.3 94 35.7C109.7 40 125.3 46 141 50.8C156.7 55.7 172.3 59.3 188 61.7C203.7 64 219.3 65 235 60.2C250.7 55.3 266.3 44.7 282 42.3C297.7 40 313.3 46 329 52C344.7 58 360.3 64 376 63.8C391.7 63.7 407.3 57.3 423 58.2C438.7 59 454.3 67 470 68.5C485.7 70 501.3 65 516.8 61C532.3 57 547.7 54 563.2 50.8C578.7 47.7 594.3 44.3 610 46.8C625.7 49.3 641.3 57.7 657 58.3C672.7 59 688.3 52 704 46.3C719.7 40.7 735.3 36.3 751 37.5C766.7 38.7 782.3 45.3 798 46C813.7 46.7 829.3 41.3 845 40.3C860.7 39.3 876.3 42.7 892 43.7C907.7 44.7 923.3 43.3 939 42.8C954.7 42.3 970.3 42.7 986 47.8C1001.7 53 1017.3 63 1033 66C1048.7 69 1064.3 65 1072.2 63L1080 61L1080 101L1072.2 101C1064.3 101 1048.7 101 1033 101C1017.3 101 1001.7 101 986 101C970.3 101 954.7 101 939 101C923.3 101 907.7 101 892 101C876.3 101 860.7 101 845 101C829.3 101 813.7 101 798 101C782.3 101 766.7 101 751 101C735.3 101 719.7 101 704 101C688.3 101 672.7 101 657 101C641.3 101 625.7 101 610 101C594.3 101 578.7 101 563.2 101C547.7 101 532.3 101 516.8 101C501.3 101 485.7 101 470 101C454.3 101 438.7 101 423 101C407.3 101 391.7 101 376 101C360.3 101 344.7 101 329 101C313.3 101 297.7 101 282 101C266.3 101 250.7 101 235 101C219.3 101 203.7 101 188 101C172.3 101 156.7 101 141 101C125.3 101 109.7 101 94 101C78.3 101 62.7 101 47 101C31.3 101 15.7 101 7.8 101L0 101Z" fill="#ff718d"></path><path d="M0 74L7.8 74.5C15.7 75 31.3 76 47 70.5C62.7 65 78.3 53 94 47.3C109.7 41.7 125.3 42.3 141 48.3C156.7 54.3 172.3 65.7 188 65.2C203.7 64.7 219.3 52.3 235 50.2C250.7 48 266.3 56 282 62.5C297.7 69 313.3 74 329 75.8C344.7 77.7 360.3 76.3 376 72.8C391.7 69.3 407.3 63.7 423 57.7C438.7 51.7 454.3 45.3 470 45.8C485.7 46.3 501.3 53.7 516.8 59C532.3 64.3 547.7 67.7 563.2 70.7C578.7 73.7 594.3 76.3 610 77C625.7 77.7 641.3 76.3 657 69.7C672.7 63 688.3 51 704 48.8C719.7 46.7 735.3 54.3 751 54.3C766.7 54.3 782.3 46.7 798 45.2C813.7 43.7 829.3 48.3 845 53.2C860.7 58 876.3 63 892 65.3C907.7 67.7 923.3 67.3 939 67.7C954.7 68 970.3 69 986 67.3C1001.7 65.7 1017.3 61.3 1033 60.2C1048.7 59 1064.3 61 1072.2 62L1080 63L1080 101L1072.2 101C1064.3 101 1048.7 101 1033 101C1017.3 101 1001.7 101 986 101C970.3 101 954.7 101 939 101C923.3 101 907.7 101 892 101C876.3 101 860.7 101 845 101C829.3 101 813.7 101 798 101C782.3 101 766.7 101 751 101C735.3 101 719.7 101 704 101C688.3 101 672.7 101 657 101C641.3 101 625.7 101 610 101C594.3 101 578.7 101 563.2 101C547.7 101 532.3 101 516.8 101C501.3 101 485.7 101 470 101C454.3 101 438.7 101 423 101C407.3 101 391.7 101 376 101C360.3 101 344.7 101 329 101C313.3 101 297.7 101 282 101C266.3 101 250.7 101 235 101C219.3 101 203.7 101 188 101C172.3 101 156.7 101 141 101C125.3 101 109.7 101 94 101C78.3 101 62.7 101 47 101C31.3 101 15.7 101 7.8 101L0 101Z" fill="#fe429a"></path><path d="M0 81L7.8 76.3C15.7 71.7 31.3 62.3 47 61.5C62.7 60.7 78.3 68.3 94 72.2C109.7 76 125.3 76 141 71.7C156.7 67.3 172.3 58.7 188 54.3C203.7 50 219.3 50 235 52C250.7 54 266.3 58 282 59.5C297.7 61 313.3 60 329 61.7C344.7 63.3 360.3 67.7 376 69.7C391.7 71.7 407.3 71.3 423 73.5C438.7 75.7 454.3 80.3 470 77.8C485.7 75.3 501.3 65.7 516.8 64C532.3 62.3 547.7 68.7 563.2 72C578.7 75.3 594.3 75.7 610 75.7C625.7 75.7 641.3 75.3 657 73.3C672.7 71.3 688.3 67.7 704 67.2C719.7 66.7 735.3 69.3 751 70.8C766.7 72.3 782.3 72.7 798 73.3C813.7 74 829.3 75 845 74.7C860.7 74.3 876.3 72.7 892 69.2C907.7 65.7 923.3 60.3 939 60.8C954.7 61.3 970.3 67.7 986 72C1001.7 76.3 1017.3 78.7 1033 80.2C1048.7 81.7 1064.3 82.3 1072.2 82.7L1080 83L1080 101L1072.2 101C1064.3 101 1048.7 101 1033 101C1017.3 101 1001.7 101 986 101C970.3 101 954.7 101 939 101C923.3 101 907.7 101 892 101C876.3 101 860.7 101 845 101C829.3 101 813.7 101 798 101C782.3 101 766.7 101 751 101C735.3 101 719.7 101 704 101C688.3 101 672.7 101 657 101C641.3 101 625.7 101 610 101C594.3 101 578.7 101 563.2 101C547.7 101 532.3 101 516.8 101C501.3 101 485.7 101 470 101C454.3 101 438.7 101 423 101C407.3 101 391.7 101 376 101C360.3 101 344.7 101 329 101C313.3 101 297.7 101 282 101C266.3 101 250.7 101 235 101C219.3 101 203.7 101 188 101C172.3 101 156.7 101 141 101C125.3 101 109.7 101 94 101C78.3 101 62.7 101 47 101C31.3 101 15.7 101 7.8 101L0 101Z" fill="#eb00b3"></path><path d="M0 68L7.8 70.5C15.7 73 31.3 78 47 78C62.7 78 78.3 73 94 71C109.7 69 125.3 70 141 72.5C156.7 75 172.3 79 188 80.8C203.7 82.7 219.3 82.3 235 81.3C250.7 80.3 266.3 78.7 282 78C297.7 77.3 313.3 77.7 329 75.8C344.7 74 360.3 70 376 68C391.7 66 407.3 66 423 69C438.7 72 454.3 78 470 77.3C485.7 76.7 501.3 69.3 516.8 68.5C532.3 67.7 547.7 73.3 563.2 74.8C578.7 76.3 594.3 73.7 610 75.2C625.7 76.7 641.3 82.3 657 85.5C672.7 88.7 688.3 89.3 704 89C719.7 88.7 735.3 87.3 751 83.2C766.7 79 782.3 72 798 69.7C813.7 67.3 829.3 69.7 845 71.3C860.7 73 876.3 74 892 76.8C907.7 79.7 923.3 84.3 939 83.8C954.7 83.3 970.3 77.7 986 75C1001.7 72.3 1017.3 72.7 1033 71.8C1048.7 71 1064.3 69 1072.2 68L1080 67L1080 101L1072.2 101C1064.3 101 1048.7 101 1033 101C1017.3 101 1001.7 101 986 101C970.3 101 954.7 101 939 101C923.3 101 907.7 101 892 101C876.3 101 860.7 101 845 101C829.3 101 813.7 101 798 101C782.3 101 766.7 101 751 101C735.3 101 719.7 101 704 101C688.3 101 672.7 101 657 101C641.3 101 625.7 101 610 101C594.3 101 578.7 101 563.2 101C547.7 101 532.3 101 516.8 101C501.3 101 485.7 101 470 101C454.3 101 438.7 101 423 101C407.3 101 391.7 101 376 101C360.3 101 344.7 101 329 101C313.3 101 297.7 101 282 101C266.3 101 250.7 101 235 101C219.3 101 203.7 101 188 101C172.3 101 156.7 101 141 101C125.3 101 109.7 101 94 101C78.3 101 62.7 101 47 101C31.3 101 15.7 101 7.8 101L0 101Z" fill="#c100d7"></path><path d="M0 89L7.8 89.8C15.7 90.7 31.3 92.3 47 92.3C62.7 92.3 78.3 90.7 94 90.7C109.7 90.7 125.3 92.3 141 92C156.7 91.7 172.3 89.3 188 87.7C203.7 86 219.3 85 235 86C250.7 87 266.3 90 282 89.7C297.7 89.3 313.3 85.7 329 85.8C344.7 86 360.3 90 376 90.8C391.7 91.7 407.3 89.3 423 87C438.7 84.7 454.3 82.3 470 82.5C485.7 82.7 501.3 85.3 516.8 86C532.3 86.7 547.7 85.3 563.2 86.3C578.7 87.3 594.3 90.7 610 91.5C625.7 92.3 641.3 90.7 657 87.7C672.7 84.7 688.3 80.3 704 79.8C719.7 79.3 735.3 82.7 751 83.7C766.7 84.7 782.3 83.3 798 81.8C813.7 80.3 829.3 78.7 845 80.2C860.7 81.7 876.3 86.3 892 87.8C907.7 89.3 923.3 87.7 939 86.3C954.7 85 970.3 84 986 83.5C1001.7 83 1017.3 83 1033 81.8C1048.7 80.7 1064.3 78.3 1072.2 77.2L1080 76L1080 101L1072.2 101C1064.3 101 1048.7 101 1033 101C1017.3 101 1001.7 101 986 101C970.3 101 954.7 101 939 101C923.3 101 907.7 101 892 101C876.3 101 860.7 101 845 101C829.3 101 813.7 101 798 101C782.3 101 766.7 101 751 101C735.3 101 719.7 101 704 101C688.3 101 672.7 101 657 101C641.3 101 625.7 101 610 101C594.3 101 578.7 101 563.2 101C547.7 101 532.3 101 516.8 101C501.3 101 485.7 101 470 101C454.3 101 438.7 101 423 101C407.3 101 391.7 101 376 101C360.3 101 344.7 101 329 101C313.3 101 297.7 101 282 101C266.3 101 250.7 101 235 101C219.3 101 203.7 101 188 101C172.3 101 156.7 101 141 101C125.3 101 109.7 101 94 101C78.3 101 62.7 101 47 101C31.3 101 15.7 101 7.8 101L0 101Z" fill="#6214ff"></path></svg>